<?xml version="1.0" standalone="no"?><!DOCTYPE svg PUBLIC "-//W3C//DTD SVG 20010904//EN" "http://www.w3.org/TR/2001/REC-SVG-20010904/DTD/svg10.dtd"><svg viewBox="0 0 1200 800" xmlns="http://www.w3.org/2000/svg" xmlns:xlink="http://www.w3.org/1999/xlink"><style>:root>svg{display:none}:root>svg:target{display:block}</style><svg version="1.0" viewBox="0 0 80 66" id="Wallet" xmlns="http://www.w3.org/2000/svg"/><svg id="appstore" data-name="Layer 1" viewBox="0 0 788.18 225.17" xmlns="http://www.w3.org/2000/svg"><defs><style>.bcls-1{fill:#1c1a16}.bcls-2{fill:#fff}</style></defs><path class="bcls-1" d="M788.18 202.76a22.38 22.38 0 01-22.63 22.41H22.09A21.69 21.69 0 010 203.05v-181A21.65 21.65 0 0122.09 0h743.46c12.55 0 22.52 9.54 22.52 22.08v181z"/><path class="bcls-2" d="M172.59 111.3c-.17-19.09 15.64-28.39 16.36-28.82-8.95-13.06-22.83-14.84-27.71-15-11.65-1.22-23 7-28.88 7s-15.22-6.86-25.06-6.66c-12.68.21-24.55 7.55-31 18.94-13.47 23.24-3.46 57.4 9.4 76.24 6.44 9.2 14 19.48 23.8 19.11 9.62-.4 13.21-6.13 24.84-6.13s14.89 6.13 24.93 5.9c10.33-.17 16.83-9.25 23-18.53a75.76 75.76 0 0010.55-21.47c-.25-.08-20.07-7.64-20.27-30.54M153.63 55.14c5.18-6.47 8.73-15.29 7.73-24.23-7.49.34-16.86 5.18-22.25 11.52-4.78 5.59-9.06 14.74-8 23.34 8.43.62 17.06-4.25 22.47-10.63M311.93 180.76h-13.45l-7.37-23.18H265.5l-7 23.18h-13.1l25.4-78.86h15.66zm-23-32.89l-6.66-20.59q-1.07-3.15-4-14.85H278q-1.18 5-3.75 14.85l-6.56 20.59zM377.22 151.62q0 14.5-7.84 22.93A22.92 22.92 0 01352 182q-11.25 0-16.16-8.07h-.22v29.95h-12.68v-61.3q0-9.12-.47-18.72h11.11l.71 9h.24q6.3-10.19 19.18-10.18a21.15 21.15 0 0116.79 8q6.72 8 6.72 20.94m-12.87.46q0-8.29-3.74-13.69a12.93 12.93 0 00-11-5.61 13.1 13.1 0 00-8.49 3.1 14.44 14.44 0 00-5 8.14 16.47 16.47 0 00-.58 3.85v9.48a15.17 15.17 0 003.79 10.47 12.6 12.6 0 009.89 4.27 12.88 12.88 0 0011.11-5.5q4-5.51 4-14.51M442.61 151.62q0 14.5-7.84 22.93a22.91 22.91 0 01-17.43 7.45q-11.22 0-16.13-8.07H401v29.95h-12.66v-61.3q0-9.12-.47-18.72H399l.71 9h.24q6.29-10.19 19.18-10.18a21.14 21.14 0 0116.79 8q6.72 8 6.71 20.94m-12.86.46q0-8.29-3.75-13.69a12.92 12.92 0 00-11-5.61 13.07 13.07 0 00-8.48 3.1 14.38 14.38 0 00-5 8.14 16 16 0 00-.59 3.85v9.48a15.13 15.13 0 003.8 10.47 12.56 12.56 0 009.89 4.27 12.89 12.89 0 0011.11-5.5c2.64-3.67 4-8.5 4-14.51M515.74 158.64c0 6.7-2.32 12.16-7 16.38q-7.71 6.9-21.47 6.9-12.72 0-20.45-4.91l2.93-10.53a34.69 34.69 0 0018.27 5q7.14 0 11.13-3.21a10.56 10.56 0 004-8.62 11 11 0 00-3.27-8.08c-2.18-2.19-5.82-4.22-10.89-6.1q-20.71-7.74-20.7-22.61a20 20 0 017.25-15.94q7.25-6.21 19.31-6.22 10.77 0 17.89 3.75l-3.15 10.3a31.05 31.05 0 00-15.1-3.63q-6.68 0-10.4 3.28a9.36 9.36 0 00-3.16 7.13 9.62 9.62 0 003.62 7.72q3.15 2.8 11.47 6.09 10.17 4.09 15 9.59a20.08 20.08 0 014.8 13.69M557.5 133.37h-13.92V161q0 10.53 7.38 10.52a22.49 22.49 0 005.6-.58l.35 9.6a28.56 28.56 0 01-9.82 1.4q-7.49 0-11.7-4.56T531.18 162v-28.63h-8.31v-9.49h8.31v-10.4l12.4-3.75v14.15h13.92zM620.33 151.85q0 13.11-7.48 21.53Q605 182.05 592 182q-12.54 0-19.95-8.3t-7.43-20.93q0-13.25 7.66-21.65t20.72-8.4q12.51 0 20.13 8.31 7.26 8.08 7.25 20.82m-13.11.41a25.6 25.6 0 00-3.39-13.49q-4-6.81-11.34-6.81a12.64 12.64 0 00-11.58 6.81 26.08 26.08 0 00-3.39 13.73 25.57 25.57 0 003.34 13.5q4.08 6.8 11.47 6.8c4.82 0 8.61-2.3 11.33-6.92a25.6 25.6 0 003.51-13.61M661.39 135a22.82 22.82 0 00-4-.35 12 12 0 00-10.31 5 19 19 0 00-3.08 11.26v29.84h-12.67l.11-38.95q0-9.84-.46-17.91h11l.46 10.89h.34a19.46 19.46 0 016.33-9 15.25 15.25 0 019.13-3 20 20 0 013.15.23zM717.89 149.63a30.87 30.87 0 01-.45 5.73h-37.9q.21 8.43 5.49 12.88c3.19 2.65 7.33 4 12.4 4a42.07 42.07 0 0015.33-2.68l2 8.77a47.54 47.54 0 01-19.08 3.52q-13.2 0-20.76-7.79t-7.54-20.88q0-12.87 7-21.42 7.36-9.12 19.88-9.11 12.29 0 18.62 9.11 5 7.26 5 17.91m-12-3.28a17.16 17.16 0 00-2.44-9.71c-2.19-3.51-5.56-5.26-10.08-5.26a12 12 0 00-10.05 5.15 18.63 18.63 0 00-3.73 9.82zM284.22 53.38q0 10.47-6.26 15.75Q272.15 74 261.47 74a74.09 74.09 0 01-9.09-.47V35.45a67.46 67.46 0 0110.69-.8q10.19 0 15.36 4.43 5.79 5 5.79 14.3m-6.54.18c0-4.53-1.21-8-3.6-10.41s-5.88-3.62-10.49-3.62a26.38 26.38 0 00-5 .41v29a32.7 32.7 0 004.19.17c4.75 0 8.43-1.31 11-4s3.9-6.49 3.9-11.55M318.94 59.48A15.33 15.33 0 01315.26 70 13.12 13.12 0 01305 74.31a12.47 12.47 0 01-9.8-4.09 14.83 14.83 0 01-3.65-10.28 15.21 15.21 0 013.77-10.64q3.75-4.14 10.15-4.13a12.71 12.71 0 019.87 4.08 14.65 14.65 0 013.58 10.23m-6.44.2a12.72 12.72 0 00-1.67-6.63 6.15 6.15 0 00-5.58-3.35 6.21 6.21 0 00-5.68 3.35 12.76 12.76 0 00-1.67 6.74 12.57 12.57 0 001.67 6.64 6.34 6.34 0 0011.2-.06 12.6 12.6 0 001.73-6.69M365.49 45.74l-8.75 27.93h-5.68l-3.62-12.12a92.74 92.74 0 01-2.24-9h-.11a69.54 69.54 0 01-2.25 9L339 73.67h-5.75L325 45.74h6.38L334.56 59c.77 3.14 1.4 6.12 1.9 9h.12c.46-2.34 1.21-5.31 2.3-8.91l4-13.33h5.05l3.8 13q1.4 4.78 2.24 9.2h.17a86.06 86.06 0 011.91-9.2l3.4-13zM397.68 73.67h-6.21v-16c0-4.94-1.87-7.39-5.63-7.39a5.65 5.65 0 00-4.49 2 7.27 7.27 0 00-1.72 4.8v16.59h-6.21V53.73q0-3.69-.22-8h5.45l.3 4.37h.17a8.8 8.8 0 013.22-3.37 10.5 10.5 0 015.66-1.57 8.94 8.94 0 016.5 2.53c2.15 2.07 3.22 5.17 3.22 9.26zM408.59 32.92h6.22v40.75h-6.22zM451.36 59.48A15.28 15.28 0 01447.68 70a13.11 13.11 0 01-10.24 4.27 12.44 12.44 0 01-9.79-4.09A14.83 14.83 0 01424 59.94a15.21 15.21 0 013.76-10.64q3.76-4.14 10.16-4.13a12.73 12.73 0 019.87 4.08 14.69 14.69 0 013.57 10.23m-6.43.2a12.72 12.72 0 00-1.67-6.63 6.15 6.15 0 00-5.58-3.35 6.26 6.26 0 00-5.7 3.35 13 13 0 00-1.66 6.74 12.76 12.76 0 001.68 6.64 6.29 6.29 0 005.63 3.34 6.22 6.22 0 005.59-3.4 12.69 12.69 0 001.73-6.69M481.42 73.67h-5.58l-.46-3.21h-.17a9.57 9.57 0 01-8.16 3.84 8.41 8.41 0 01-6.39-2.53 7.9 7.9 0 01-2.17-5.68 8.68 8.68 0 014.29-7.82c2.84-1.81 6.85-2.68 12-2.65v-.51q0-5.52-5.78-5.52a13.05 13.05 0 00-7.29 2.07l-1.26-4.08a17.87 17.87 0 019.55-2.41c7.33 0 11 3.85 11 11.55V67a43 43 0 00.41 6.66M475 64.07v-4.3c-6.85-.12-10.28 1.77-10.28 5.63a4.2 4.2 0 001.21 3.27 4.34 4.34 0 003 1.09 6.32 6.32 0 003.8-1.29 5.24 5.24 0 002.14-3.3 4.49 4.49 0 00.11-1.1M516.71 73.67h-5.52l-.29-4.48h-.17q-2.64 5.11-9 5.12a10.5 10.5 0 01-8.39-4 15.45 15.45 0 01-3.33-10.29c0-4.52 1.19-8.18 3.6-11a11.15 11.15 0 018.63-3.9q5.64 0 7.88 3.79h.12v-16h6.2v33.23q0 4.1.23 7.53m-6.43-11.78v-4.65a8.71 8.71 0 00-.18-2 6.87 6.87 0 00-2.26-3.76 6 6 0 00-4.11-1.48 6.36 6.36 0 00-5.45 2.75 11.79 11.79 0 00-2 7.06 11 11 0 001.92 6.73 6.36 6.36 0 005.41 2.76 6 6 0 004.91-2.3 7.63 7.63 0 001.8-5.11M569.83 59.48a15.25 15.25 0 01-3.7 10.52 13.07 13.07 0 01-10.22 4.27 12.45 12.45 0 01-9.8-4.09 14.83 14.83 0 01-3.65-10.28 15.21 15.21 0 013.76-10.64 13 13 0 0110.14-4.13 12.81 12.81 0 019.9 4.08 14.74 14.74 0 013.57 10.23m-6.45.2a12.63 12.63 0 00-1.67-6.63 6.15 6.15 0 00-5.57-3.35 6.22 6.22 0 00-5.69 3.35 12.86 12.86 0 00-1.67 6.74 12.66 12.66 0 001.67 6.64 6.34 6.34 0 0011.2-.06 12.51 12.51 0 001.73-6.69M603.21 73.67H597v-16c0-4.94-1.88-7.39-5.62-7.39a5.61 5.61 0 00-4.49 2 7.28 7.28 0 00-1.73 4.8v16.59H579V53.73c0-2.46-.09-5.12-.23-8h5.46l.29 4.37h.18a8.7 8.7 0 013.21-3.37 10.53 10.53 0 015.63-1.58 8.92 8.92 0 016.5 2.53c2.14 2.07 3.22 5.17 3.22 9.26zM645 50.39h-6.84V64c0 3.45 1.19 5.17 3.62 5.17a11.13 11.13 0 002.75-.28l.18 4.7a14 14 0 01-4.83.7 7.41 7.41 0 01-5.74-2.29c-1.38-1.5-2.07-4-2.07-7.54V50.39H628v-4.65h4.09v-5.12l6.09-1.83v7H645zM677.86 73.67h-6.2V57.79c0-5-1.87-7.5-5.64-7.5-2.86 0-4.84 1.45-5.9 4.34a7.06 7.06 0 00-.3 2.24v16.8h-6.21V32.92h6.21v16.84h.18a9.33 9.33 0 018.37-4.6 8.68 8.68 0 016.39 2.53c2.09 2.11 3.15 5.24 3.15 9.38zM711.79 58.38a16 16 0 01-.23 2.83h-18.63a8.08 8.08 0 002.7 6.31 9.2 9.2 0 006.09 2 20.35 20.35 0 007.53-1.32l1 4.31a23.27 23.27 0 01-9.36 1.73c-4.32 0-7.73-1.28-10.21-3.81s-3.7-6-3.7-10.26a16 16 0 013.45-10.53 11.92 11.92 0 019.77-4.48q6 0 9.14 4.48a15.11 15.11 0 012.48 8.79m-5.93-1.6a8.44 8.44 0 00-1.24-4.83 5.42 5.42 0 00-4.93-2.59 6 6 0 00-5 2.53 9.44 9.44 0 00-1.82 4.83z"/></svg><svg version="1.0" viewBox="0 0 210 200" id="checkBlue" xmlns="http://www.w3.org/2000/svg"><path d="M26 174c-37-38-37-106 1-146C50 4 62 0 108 0c71 0 102 31 102 101 0 67-34 99-105 99-43 0-57-5-79-26zm118-5c28-13 47-57 39-88-5-18-10-13-37 31-17 28-35 53-41 55-10 3-55-59-55-77s25-11 38 11c13 21 15 20 43-22l29-44-31-9c-38-12-76 6-98 45-12 22-12 32-2 56 19 47 66 64 115 42z" fill="#1ca8c3"/></svg><svg version="1.0" viewBox="0 0 210 200" id="checkRed" xmlns="http://www.w3.org/2000/svg"><path d="M26 174c-37-38-37-106 1-146C50 4 62 0 108 0c71 0 102 31 102 101 0 67-34 99-105 99-43 0-57-5-79-26zm118-5c28-13 47-57 39-88-5-18-10-13-37 31-17 28-35 53-41 55-10 3-55-59-55-77s25-11 38 11c13 21 15 20 43-22l29-44-31-9c-38-12-76 6-98 45-12 22-12 32-2 56 19 47 66 64 115 42z" fill="#ff5656"/></svg><svg fill="none" viewBox="0 0 19 18" id="facebook" xmlns="http://www.w3.org/2000/svg"><g clip-path="url(#eclip0_10_2)"><path d="M12.329 2.989h1.618V.127C13.668.087 12.707 0 11.59 0 9.255 0 7.656 1.49 7.656 4.23v2.52H5.08v3.2h2.576V18h3.158V9.95h2.471l.393-3.2h-2.865V4.547c0-.924.246-1.557 1.516-1.557z" fill="#fff"/></g><defs><clipPath id="eclip0_10_2"><path fill="#fff" transform="translate(.51)" d="M0 0h17.732v18H0z"/></clipPath></defs></svg><svg viewBox="-449.849 -222.507 3898.693 1335.042" id="googleplay" xmlns="http://www.w3.org/2000/svg"><defs><linearGradient id="fa" y2=".278" x2=".26" y1=".956" x1=".613"><stop offset="0%" stop-color="#00A0FF"/><stop offset=".657%" stop-color="#00A1FF"/><stop offset="26.01%" stop-color="#00BEFF"/><stop offset="51.22%" stop-color="#00D2FF"/><stop offset="76.04%" stop-color="#00DFFF"/><stop offset="100%" stop-color="#00E3FF"/></linearGradient><linearGradient id="fb" y2=".509" x2="-1.305" y1=".509" x1="1.076"><stop offset="0%" stop-color="#FFE000"/><stop offset="40.87%" stop-color="#FFBD00"/><stop offset="77.54%" stop-color="orange"/><stop offset="100%" stop-color="#FF9C00"/></linearGradient><linearGradient id="fc" y2="-.361" x2="-.505" y1=".691" x1=".867"><stop offset="0%" stop-color="#FF3A44"/><stop offset="100%" stop-color="#C31162"/></linearGradient><linearGradient id="fd" y2=".649" x2=".418" y1="1.119" x1="-.193"><stop offset="0%" stop-color="#32A071"/><stop offset="6.85%" stop-color="#2DA771"/><stop offset="47.62%" stop-color="#15CF74"/><stop offset="80.09%" stop-color="#06E775"/><stop offset="100%" stop-color="#00F076"/></linearGradient><linearGradient id="fe" y2="-.021" x2="-.501" y1=".695" x1=".862"><stop offset="0%" stop-color="#CC2E36"/><stop offset="100%" stop-color="#9C0E4E"/></linearGradient><linearGradient id="ff" y2="4.496" x2="-.663" y1="15.318" x1="3.073"><stop offset="0%" stop-color="#008DE0"/><stop offset=".657%" stop-color="#008DE0"/><stop offset="26.01%" stop-color="#00A7E0"/><stop offset="51.22%" stop-color="#00B8E0"/><stop offset="76.04%" stop-color="#00C4E0"/><stop offset="100%" stop-color="#00C7E0"/></linearGradient><linearGradient id="fg" y2="1" x2="-2.882" y1="1" x1="1.128"><stop offset="0%" stop-color="#E0C500"/><stop offset="40.87%" stop-color="#E0A600"/><stop offset="77.54%" stop-color="#E09100"/><stop offset="100%" stop-color="#E08900"/></linearGradient><linearGradient id="fh" y2="0" x2="-2.882" y1="0" x1="1.128"><stop offset="0%" stop-color="#FFE840"/><stop offset="40.87%" stop-color="#FFCE40"/><stop offset="77.54%" stop-color="#FFBC40"/><stop offset="100%" stop-color="#FFB540"/></linearGradient><linearGradient id="fi" y2="-10.098" x2="-.657" y1=".234" x1="3.061"><stop offset="0%" stop-color="#40B8FF"/><stop offset=".657%" stop-color="#40B9FF"/><stop offset="26.01%" stop-color="#40CEFF"/><stop offset="51.22%" stop-color="#40DDFF"/><stop offset="76.04%" stop-color="#40E7FF"/><stop offset="100%" stop-color="#40EAFF"/></linearGradient><linearGradient id="fj" y2=".537" x2=".421" y1=".856" x1="-.188"><stop offset="0%" stop-color="#65B895"/><stop offset="6.85%" stop-color="#62BD95"/><stop offset="47.62%" stop-color="#50DB97"/><stop offset="80.09%" stop-color="#44ED98"/><stop offset="100%" stop-color="#40F498"/></linearGradient><linearGradient gradientUnits="userSpaceOnUse" gradientTransform="scale(.72167 1.38567)" y2="110.924" x2="103.763" y1="380.413" x1="243.89" id="fk" xlink:href="#fa"/><linearGradient gradientUnits="userSpaceOnUse" gradientTransform="scale(1.1083 .90228)" y2="104.456" x2="-265.185" y1="104.456" x1="219.82" id="fl" xlink:href="#fb"/><linearGradient gradientUnits="userSpaceOnUse" gradientTransform="scale(1.13894 .878)" y2="-116.045" x2="-162.26" y1="222.803" x1="279.815" id="fm" xlink:href="#fc"/><linearGradient gradientUnits="userSpaceOnUse" gradientTransform="scale(1.13896 .878)" y2="210.03" x2="134.984" y1="361.335" x1="-62.115" id="fn" xlink:href="#fd"/><linearGradient gradientUnits="userSpaceOnUse" gradientTransform="scale(1.38147 .72387)" y2="-4.388" x2="-133.972" y1="187.683" x1="231.994" id="fo" xlink:href="#fe"/><linearGradient gradientUnits="userSpaceOnUse" gradientTransform="scale(.58803 1.7006)" y2="91.69" x2="-13.255" y1="311.274" x1="62.549" id="fp" xlink:href="#ff"/><linearGradient gradientUnits="userSpaceOnUse" gradientTransform="scale(1.19442 .83723)" y2="112.451" x2="-322.924" y1="112.451" x1="127.112" id="fq" xlink:href="#fg"/><linearGradient gradientUnits="userSpaceOnUse" gradientTransform="scale(1.1944 .83724)" y2=".829" x2="-322.928" y1=".829" x1="127.114" id="fr" xlink:href="#fh"/><linearGradient gradientUnits="userSpaceOnUse" gradientTransform="scale(.58722 1.70294)" y2="-204.589" x2="-13.13" y1="4.878" x1="62.249" id="fs" xlink:href="#fi"/><linearGradient gradientUnits="userSpaceOnUse" gradientTransform="scale(1.38144 .72388)" y2="144.927" x2="113.528" y1="230.7" x1="-49.894" id="ft" xlink:href="#fj"/></defs><g fill="none"><path fill="#000" d="M2887.921 890.028H111.074C49.984 890.028 0 839.964 0 778.775V111.254C0 50.064 49.983 0 111.074 0H2887.92c61.09 0 111.074 50.064 111.074 111.254v667.52c0 61.19-49.983 111.254-111.074 111.254"/><path fill="#A6A6A6" d="M2887.921 0H111.074C49.984 0 0 50.064 0 111.254v667.52c0 61.19 49.983 111.254 111.074 111.254H2887.92c61.09 0 111.074-50.064 111.074-111.253V111.254C2998.995 50.064 2949.012 0 2887.92 0m0 17.8c51.45 0 93.302 41.93 93.302 93.454v667.52c0 51.534-41.853 93.463-93.302 93.463H111.074c-51.44 0-93.302-41.93-93.302-93.462V111.254c0-51.524 41.861-93.453 93.302-93.453H2887.92"/><path fill="#FFF" d="M1053.39 227.923c0 18.642-5.512 33.487-16.55 44.561-12.539 13.168-28.88 19.757-48.969 19.757-19.238 0-35.595-6.675-49.046-20.044-13.475-13.359-20.2-29.925-20.2-49.69 0-19.774 6.725-36.33 20.2-49.7 13.451-13.358 29.808-20.043 49.046-20.043 9.546 0 18.685 1.87 27.362 5.599 8.677 3.738 15.637 8.7 20.844 14.914l-11.716 11.742c-8.824-10.56-20.973-15.836-36.49-15.836-14.03 0-26.162 4.938-36.401 14.82-10.241 9.892-15.36 22.72-15.36 38.504 0 15.785 5.119 28.612 15.36 38.505 10.239 9.882 22.37 14.819 36.401 14.819 14.884 0 27.293-4.964 37.228-14.906 6.449-6.477 10.178-15.48 11.176-27.041H987.87v-16.036h64.59c.624 3.487.928 6.833.928 10.075"/><path fill="#FFF" d="M1053.39 227.923h-2.222c-.018 18.217-5.33 32.366-15.9 42.988l-.023.018-.01.018c-12.14 12.714-27.745 19.042-47.365 19.069-18.724-.027-34.397-6.424-47.484-19.392-13.058-12.994-19.515-28.857-19.54-48.117.025-19.269 6.482-35.123 19.54-48.108 13.087-12.977 28.76-19.383 47.484-19.41 9.26 0 18.077 1.81 26.485 5.416 8.417 3.634 15.066 8.396 20.02 14.308l1.701-1.436-1.57-1.573-11.716 11.75 1.57 1.565 1.711-1.424c-9.235-11.083-22.197-16.67-38.2-16.637-14.551-.018-27.351 5.19-37.939 15.447-10.69 10.29-16.061 23.84-16.043 40.102-.018 16.263 5.353 29.812 16.043 40.103 10.588 10.257 23.388 15.464 37.938 15.446 15.377.027 28.482-5.198 38.799-15.558 6.89-6.92 10.796-16.505 11.82-28.423l.207-2.416h-48.604v-11.586h62.368v-2.225l-2.188.391c.608 3.374.895 6.58.895 9.684h4.443c0-3.382-.313-6.858-.964-10.473l-.329-1.827H985.65v20.486h50.625v-2.225l-2.212-.191c-.98 11.196-4.539 19.627-10.535 25.66-9.545 9.525-21.26 14.226-35.657 14.253-13.51-.018-24.973-4.677-34.857-14.194-9.788-9.483-14.657-21.59-14.682-36.905.025-15.315 4.894-27.422 14.682-36.905 9.884-9.517 21.346-14.176 34.857-14.194 15.022.036 26.365 5.007 34.791 15.046l1.562 1.86 13.424-13.463 1.44-1.442-1.311-1.558c-5.458-6.517-12.73-11.69-21.668-15.53-8.955-3.852-18.405-5.782-28.238-5.782-19.749-.017-36.792 6.936-50.616 20.696-13.875 13.733-20.869 30.995-20.85 51.272-.019 20.268 6.975 37.54 20.859 51.281 13.815 13.751 30.858 20.696 50.607 20.678 20.567.018 37.628-6.824 50.575-20.444l-1.607-1.538 1.571 1.574c11.507-11.517 17.216-27.075 17.201-46.135h-2.222m102.395-55.767h-60.7v42.33h54.74v16.042h-54.74v42.33h60.7v16.401h-77.812V155.755h77.812v16.401"/><path fill="#FFF" d="M1155.784 172.156v-2.225h-62.921v46.78h54.739v11.586l-54.74.006v46.78h60.7v11.951h-73.368V157.98h73.368v14.176h2.222v-2.225 2.225h2.221V153.53h-82.254v137.954h82.254v-20.851h-60.7v-37.88h54.74v-20.492h-54.74v-37.88h60.7v-2.225h-2.221m72.224 117.104h-17.138V172.155h-37.228v-16.401h91.594v16.401h-37.228v117.103"/><path fill="#FFF" d="M1228.008 289.26v-2.226h-14.917V169.931h-37.227v-11.95h87.15v11.95h-37.227v119.328h2.221v-2.225 2.225h2.222V174.381h37.227V153.53h-96.036v20.85h37.227v117.103h21.582v-2.225h-2.222m103.499.002V155.754h17.121v133.504h-17.121"/><path fill="#FFF" d="M1331.507 289.26h2.222V157.98h12.677v129.054h-14.899v2.225h2.222-2.222v2.225h19.342V153.53h-21.563v137.954h2.221v-2.225m93.093.001h-17.138V172.155h-37.226v-16.401h91.592v16.401H1424.6v117.103"/><path fill="#FFF" d="M1424.6 289.26v-2.226h-14.917V169.931h-37.225v-11.95h87.148v11.95h-37.227v119.328h2.221v-2.225 2.225h2.222V174.381h37.227V153.53h-96.034v20.85h37.225v117.103h21.582v-2.225h-2.222m125.532-28.428c9.865 10.003 21.937 15 36.212 15 14.275 0 26.353-4.997 36.203-15 9.875-10.004 14.822-22.792 14.822-38.323 0-15.53-4.947-28.318-14.822-38.322-9.85-10.004-21.928-15.002-36.203-15.002-14.275 0-26.347 4.998-36.212 15.002-9.85 10.004-14.795 22.791-14.795 38.322 0 15.531 4.945 28.319 14.795 38.323zm85.084 11.176c-13.104 13.497-29.4 20.235-48.872 20.235-19.491 0-35.78-6.738-48.855-20.235-13.113-13.482-19.638-29.985-19.638-49.499 0-19.514 6.525-36.02 19.638-49.499 13.076-13.5 29.364-20.244 48.855-20.244 19.369 0 35.621 6.78 48.786 20.331 13.146 13.55 19.724 30.02 19.724 49.412 0 19.514-6.562 36.017-19.638 49.499z"/><path fill="#FFF" d="M1550.132 260.83l-1.58 1.564c10.232 10.404 22.997 15.689 37.792 15.662 14.786.027 27.568-5.258 37.783-15.662 10.299-10.414 15.479-23.886 15.463-39.887.015-16-5.164-29.473-15.463-39.887-10.215-10.404-22.997-15.688-37.783-15.662-14.795-.026-27.56 5.258-37.792 15.662-10.274 10.414-15.464 23.887-15.437 39.887-.027 16 5.163 29.473 15.437 39.887l1.58-1.564 1.58-1.565c-9.424-9.605-14.136-21.687-14.154-36.758.018-15.07 4.73-27.152 14.153-36.758 9.51-9.603 20.869-14.314 34.633-14.34 13.753.026 25.138 4.737 34.624 14.34 9.441 9.606 14.153 21.688 14.17 36.758-.017 15.07-4.729 27.153-14.17 36.758-9.486 9.604-20.87 14.314-34.624 14.34-13.764-.026-25.123-4.736-34.633-14.34zm85.084 11.176l-1.588-1.546c-12.738 13.072-28.315 19.53-47.284 19.556-18.978-.027-34.555-6.484-47.269-19.556l-.06-.07.06.07c-12.711-13.117-18.984-28.935-19.002-47.953.018-19.018 6.291-34.836 19.002-47.952 12.714-13.073 28.29-19.539 47.269-19.565 18.847.026 34.388 6.519 47.197 19.66 12.756 13.177 19.065 28.97 19.092 47.857-.027 19.018-6.318 34.836-19.005 47.953l1.588 1.546 1.598 1.546c13.466-13.853 20.277-31.037 20.262-51.045.016-19.894-6.822-37.043-20.351-50.958-13.536-13.97-30.492-21.034-50.381-21.01-19.993-.024-37.001 7.007-50.452 20.923v-.01c-13.493 13.863-20.28 31.047-20.262 51.055-.018 20.008 6.769 37.192 20.262 51.054l.06.063-.06-.072c13.451 13.916 30.459 20.932 50.452 20.914 19.984.018 36.992-6.998 50.47-20.914l-1.598-1.546zm43.674 17.254V155.754h20.845l64.778 103.857h.738l-.738-25.728v-78.129h17.139v133.504h-17.877l-67.772-108.89h-.738l.738 25.737v83.153h-17.112"/><path fill="#FFF" d="M1678.89 289.26h2.222V157.98h17.39l64.778 103.857h4.252l-.798-27.986v-75.87h12.696v129.053h-14.422l-67.772-108.89h-4.252l.797 27.998v80.892h-14.89v2.225h2.221-2.221v2.225h19.333v-85.413l-.737-25.762-2.222.06v2.225h.738v-2.225l-1.884 1.183 68.424 109.932h21.33V153.53h-21.581v80.38l.737 25.762 2.222-.06v-2.225h-.738v2.225l1.884-1.181-65.432-104.901h-24.295v137.954h2.222v-2.225m696.668 378.262h41.452v-278.16h-41.453zm373.363-177.96l-47.517 120.596h-1.422l-49.317-120.597h-44.652l73.953 168.556-42.163 93.758h43.252l113.962-262.314zm-235.077 146.367c-13.595 0-32.522-6.798-32.522-23.624 0-21.47 23.592-29.7 43.94-29.7 18.24 0 26.792 3.936 37.877 9.31-3.221 25.761-25.37 44.014-49.295 44.014zm4.999-152.453c-30.013 0-61.091 13.245-73.953 42.59l36.787 15.384c7.864-15.384 22.504-20.4 37.877-20.4 21.437 0 43.23 12.89 43.585 35.793v2.86c-7.509-4.295-23.57-10.735-43.23-10.735-39.653 0-80.04 21.824-80.04 62.623 0 37.219 32.523 61.198 68.955 61.198 27.88 0 43.23-12.525 52.893-27.195h1.422v21.468h40.009V560.413c0-49.376-36.788-76.938-84.305-76.938zm-256.181 39.946h-58.958v-95.346h58.958c30.99 0 48.584 25.7 48.584 47.672 0 21.556-17.595 47.674-48.584 47.674zm-1.066-134.06h-99.323v278.16h41.43V562.135h57.893c45.94 0 91.102-33.316 91.102-86.388 0-53.07-45.162-86.386-91.102-86.386zm-541.619 246.618c-28.637 0-52.613-24.015-52.613-57 0-33.331 23.976-57.712 52.613-57.712 28.273 0 50.461 24.38 50.461 57.712 0 32.985-22.188 57-50.46 57zm47.597-130.843h-1.432c-9.302-11.11-27.205-21.147-49.748-21.147-47.242 0-90.543 41.58-90.543 94.99 0 53.055 43.3 94.279 90.543 94.279 22.543 0 40.446-10.04 49.748-21.504h1.432v13.62c0 36.211-19.324 55.567-50.46 55.567-25.41 0-41.158-18.288-47.607-33.699l-36.14 15.055c10.378 25.092 37.937 55.923 83.747 55.923 48.672 0 89.83-28.684 89.83-98.582V489.725h-39.37zm67.998 162.385h41.515v-278.17h-41.515zm102.716-91.766c-1.075-36.567 28.273-55.202 49.386-55.202 16.474 0 30.425 8.24 35.068 20.08zm128.84-31.543c-7.865-21.156-31.857-60.223-80.887-60.223-48.672 0-89.11 38.355-89.11 94.634 0 53.055 40.082 94.635 93.762 94.635 43.312 0 68.37-26.528 78.745-41.939l-32.212-21.512c-10.73 15.776-25.413 26.172-46.533 26.172-21.113 0-36.141-9.682-45.81-28.675l126.332-52.34zm-1006.512-31.186v40.147h95.912c-2.863 22.582-10.379 39.07-21.833 50.542-13.953 13.985-35.785 29.396-74.08 29.396-59.053 0-105.217-47.675-105.217-106.822 0-59.146 46.164-106.827 105.218-106.827 31.854 0 55.11 12.549 72.291 28.68l28.273-28.316c-23.976-22.947-55.832-40.511-100.564-40.511-80.886 0-148.884 65.96-148.884 146.974 0 81.015 67.998 146.969 148.884 146.969 43.665 0 76.588-14.332 102.352-41.224 26.485-26.528 34.72-63.806 34.72-93.914 0-9.327-.713-17.923-2.153-25.094zm246.115 122.953c-28.637 0-53.333-23.66-53.333-57.356 0-34.055 24.696-57.356 53.333-57.356 28.626 0 53.322 23.301 53.322 57.356 0 33.697-24.696 57.356-53.322 57.356zm0-151.99c-52.258 0-94.848 39.788-94.848 94.634 0 54.488 42.59 94.635 94.848 94.635 52.247 0 94.837-40.147 94.837-94.635 0-54.846-42.59-94.634-94.837-94.634zm206.89 151.99c-28.625 0-53.324-23.66-53.324-57.356 0-34.055 24.699-57.356 53.325-57.356 28.628 0 53.324 23.301 53.324 57.356 0 33.697-24.696 57.356-53.324 57.356zm0-151.99c-52.255 0-94.836 39.788-94.836 94.634 0 54.488 42.581 94.635 94.837 94.635 52.249 0 94.84-40.147 94.84-94.635 0-54.846-42.591-94.634-94.84-94.634z"/><path fill="#00C1FF" d="M233.446 169.357c-7.455 6.737-11.905 17.974-11.905 32.89v-3.372 492.21-3.242c0 13.775 3.817 24.413 10.281 31.264l1.65 1.582v.007c5.232 4.729 11.941 7.24 19.63 7.232 7.513 0 15.966-2.399 24.887-7.465l322.452-183.508 110.76-63.041c14.067-8.004 21.964-18.33 23.284-28.848v-.043c-1.32-10.542-9.217-20.86-23.283-28.865l-110.77-63.033L277.99 169.617c-8.94-5.075-17.399-7.483-24.932-7.483-7.68 0-14.38 2.503-19.61 7.223z"/><path d="M12.047.234l-1.651 1.582C3.932 8.666.115 19.305.115 33.08v-3.242 492.088-3.25c0 14.916 4.45 26.153 11.905 32.89l275.237-275.675L12.047.234" fill="url(#fk)" transform="matrix(1 0 0 -1 221.426 720.923)"/><path d="M92.444.738L.686 92.66l91.75 91.907 110.769-63.032c14.066-8.006 21.963-18.323 23.283-28.866v-.042c-1.32-10.518-9.217-20.845-23.283-28.848L92.445.739" fill="url(#fl)" transform="matrix(1 0 0 -1 507.997 537.692)"/><path d="M20.068.12C12.38.113 5.671 2.625.44 7.353v.007l275.21 275.657 91.758-91.922L44.955 7.586C36.034 2.519 27.581.12 20.068.12" fill="url(#fm)" transform="matrix(1 0 0 -1 233.034 728.048)"/><path d="M275.428.707L.19 276.382c5.232 4.72 11.932 7.223 19.611 7.223 7.533 0 15.993-2.407 24.932-7.483L367.177 92.614 275.427.707" fill="url(#fn)" transform="matrix(1 0 0 -1 233.255 445.74)"/><path d="M22.077.861c-7.688 0-14.406 2.512-19.638 7.24l-.009-.008a.635.635 0 01-.069.06L.93 9.553c-.045.044-.087.095-.14.146l1.65 1.653c5.232-4.728 11.94-7.24 19.63-7.231 7.512 0 15.965 2.398 24.886 7.465l322.452 183.508 2.066-2.07-2.092-1.19L46.955 8.336C38.825 3.72 31.092 1.313 24.107.912a41.848 41.848 0 00-2.03-.05" fill="url(#fo)" transform="matrix(1 0 0 -1 231.034 732.048)"/><path d="M10.396.799C3.932 7.649.115 18.279.115 32.063v3.242c0-13.775 3.817-24.413 10.281-31.264l1.65-1.582-1.65-1.66" fill="url(#fp)" transform="matrix(1 0 0 -1 221.426 723.148)"/><path d="M2.708.169L.642 2.239l110.76 63.04c14.067 8.003 21.964 18.33 23.284 28.848 0-3.86-.86-7.719-2.568-11.475-3.446-7.57-10.352-14.723-20.715-20.624L2.708.168" fill="url(#fq)" transform="matrix(1 0 0 -1 599.799 539.192)"/><path d="M134.686.716c-1.32 10.543-9.217 20.86-23.283 28.866L.633 92.614l2.066 2.07h.009l108.695-61.86c15.508-8.831 23.274-20.468 23.283-32.108" fill="url(#fr)" transform="matrix(1 0 0 -1 599.799 445.74)"/><path d="M.115.234v3.4c0 1.226.033 2.425.096 3.589v.053c0 .016 0 .033.006.051v.131c.669 11.865 4.348 21.12 10.179 27.3l1.624-1.633C4.565 26.387.115 15.15.115.234" fill="url(#fs)" transform="matrix(1 0 0 -1 221.426 202.481)"/><path d="M369.398.66L46.955 184.17c-8.939 5.075-17.398 7.482-24.931 7.482-7.68 0-14.38-2.503-19.611-7.223l-1.624 1.634a29.747 29.747 0 001.58 1.555c.017.018.044.036.061.053 5.19 4.684 11.819 7.187 19.43 7.232h.164c7.533 0 15.992-2.408 24.931-7.485L371.473 2.737l-.009-.007-2.066-2.07" fill="url(#ft)" transform="matrix(1 0 0 -1 231.034 353.786)"/></g></svg><svg fill="none" viewBox="0 0 16 16" id="instagram" xmlns="http://www.w3.org/2000/svg"><g clip-path="url(#gclip0_10_42)" fill="#fff"><path d="M15.984 4.704c-.037-.85-.175-1.435-.372-1.941a3.904 3.904 0 00-.925-1.419 3.938 3.938 0 00-1.416-.922c-.51-.197-1.09-.334-1.94-.372C10.473.01 10.201 0 8.03 0 5.857 0 5.585.01 4.732.047c-.85.037-1.434.175-1.94.372a3.904 3.904 0 00-1.42.925A3.94 3.94 0 00.45 2.76C.253 3.27.116 3.85.078 4.7c-.04.857-.05 1.13-.05 3.302s.01 2.444.047 3.297c.037.85.175 1.435.372 1.941.203.538.519 1.019.925 1.42.4.405.885.721 1.416.921.51.197 1.09.335 1.941.372.853.038 1.125.047 3.298.047 2.172 0 2.444-.01 3.297-.047.85-.037 1.435-.175 1.941-.372a4.093 4.093 0 002.341-2.34c.197-.51.335-1.092.372-1.942.038-.853.047-1.125.047-3.297 0-2.173-.003-2.445-.04-3.298zm-1.44 6.533c-.035.781-.166 1.203-.276 1.484a2.653 2.653 0 01-1.519 1.52c-.281.109-.706.24-1.484.274-.844.038-1.097.047-3.232.047-2.135 0-2.391-.01-3.232-.047-.782-.034-1.203-.165-1.485-.275a2.462 2.462 0 01-.919-.597 2.488 2.488 0 01-.597-.919c-.11-.28-.24-.706-.275-1.484-.037-.844-.047-1.097-.047-3.232 0-2.135.01-2.391.047-3.232.035-.781.166-1.203.275-1.485.129-.347.332-.662.6-.919.26-.265.572-.469.92-.597.28-.109.706-.24 1.484-.275.844-.037 1.097-.047 3.232-.047 2.138 0 2.391.01 3.232.047.781.035 1.203.166 1.484.275.347.128.663.332.92.597.265.26.468.572.596.92.11.28.241.706.275 1.484.038.844.047 1.097.047 3.232 0 2.135-.009 2.385-.046 3.229z"/><path d="M8.03 3.892a4.111 4.111 0 000 8.22 4.111 4.111 0 000-8.22zm0 6.776a2.667 2.667 0 110-5.333 2.667 2.667 0 010 5.333zM13.262 3.729a.96.96 0 11-1.92 0 .96.96 0 011.92 0z"/></g><defs><clipPath id="gclip0_10_42"><path fill="#fff" d="M0 0h16v16H0z"/></clipPath></defs></svg><svg fill="none" viewBox="0 0 14 14" id="linkedin" xmlns="http://www.w3.org/2000/svg"><g clip-path="url(#hclip0_10_23)"><path d="M12.6 0H1.4C.63 0 0 .63 0 1.4v11.2c0 .77.63 1.4 1.4 1.4h11.2c.77 0 1.4-.63 1.4-1.4V1.4c0-.77-.63-1.4-1.4-1.4zM4.2 11.9H2.1V5.6h2.1v6.3zM3.15 4.41c-.7 0-1.26-.56-1.26-1.26s.56-1.26 1.26-1.26 1.26.56 1.26 1.26-.56 1.26-1.26 1.26zm8.75 7.49H9.8V8.19c0-.56-.49-1.05-1.05-1.05S7.7 7.63 7.7 8.19v3.71H5.6V5.6h2.1v.84c.35-.56 1.12-.98 1.75-.98 1.33 0 2.45 1.12 2.45 2.45v3.99z" fill="#fff"/></g><defs><clipPath id="hclip0_10_23"><path fill="#fff" d="M0 0h14v14H0z"/></clipPath></defs></svg><svg fill="none" viewBox="0 0 20 20" id="twitter" xmlns="http://www.w3.org/2000/svg"><g clip-path="url(#iclip0_10_4)"><path d="M20 3.799a8.549 8.549 0 01-2.363.647 4.077 4.077 0 001.804-2.266 8.192 8.192 0 01-2.6.992A4.099 4.099 0 009.75 5.976c0 .325.027.638.095.935-3.409-.166-6.425-1.8-8.451-4.288A4.128 4.128 0 00.83 4.694c0 1.42.732 2.679 1.821 3.407A4.05 4.05 0 01.8 7.597v.045a4.119 4.119 0 003.285 4.03 4.09 4.09 0 01-1.075.134c-.262 0-.527-.015-.776-.07.531 1.624 2.038 2.818 3.831 2.856a8.238 8.238 0 01-5.084 1.75A7.67 7.67 0 010 16.284a11.543 11.543 0 006.29 1.84c7.545 0 11.67-6.25 11.67-11.668 0-.18-.006-.356-.015-.53A8.179 8.179 0 0020 3.8z" fill="#fff"/></g><defs><clipPath id="iclip0_10_4"><path fill="#fff" d="M0 0h20v20H0z"/></clipPath></defs></svg><svg viewBox="0 0 98.56 25.6" id="windowsstore" xmlns="http://www.w3.org/2000/svg"/></svg>